<svg xmlns="http://www.w3.org/2000/svg" width="19.327" height="17.999" viewBox="0 0 19.327 17.999">
  <g id="Gruppe_17124" data-name="Gruppe 17124" transform="translate(-267.031 -389.793)">
    <circle id="Ellipse_52" data-name="Ellipse 52" cx="2.509" cy="2.509" r="2.509" transform="translate(269.354 400.451)" fill="#fff"/>
    <path id="Pfad_15482" data-name="Pfad 15482" d="M271.863,456.95a4.832,4.832,0,1,0,4.832,4.832A4.832,4.832,0,0,0,271.863,456.95Zm0,8.814a3.982,3.982,0,1,1,3.982-3.982A3.982,3.982,0,0,1,271.863,465.764Z" transform="translate(0 -58.822)" fill="#fff"/>
    <circle id="Ellipse_53" data-name="Ellipse 53" cx="2.509" cy="2.509" r="2.509" transform="translate(279.018 400.451)" fill="#fff"/>
    <path id="Pfad_15483" data-name="Pfad 15483" d="M349.727,456.95a4.832,4.832,0,1,0,4.832,4.832A4.832,4.832,0,0,0,349.727,456.95Zm0,8.814a3.982,3.982,0,1,1,3.982-3.982A3.982,3.982,0,0,1,349.727,465.764Z" transform="translate(-68.2 -58.822)" fill="#fff"/>
    <circle id="Ellipse_54" data-name="Ellipse 54" cx="2.509" cy="2.509" r="2.509" transform="translate(274.181 392.116)" fill="#fff"/>
    <path id="Pfad_15484" data-name="Pfad 15484" d="M310.757,389.793a4.832,4.832,0,1,0,4.832,4.832A4.832,4.832,0,0,0,310.757,389.793Zm0,8.814a3.982,3.982,0,1,1,3.982-3.982A3.982,3.982,0,0,1,310.757,398.607Z" transform="translate(-34.067)" fill="#fff"/>
    <circle id="Ellipse_55" data-name="Ellipse 55" cx="1.373" cy="1.373" r="1.373" transform="translate(275.321 401.908)" fill="#fff"/>
    <circle id="Ellipse_56" data-name="Ellipse 56" cx="1.373" cy="1.373" r="1.373" transform="translate(277.734 397.404)" fill="#fff"/>
    <circle id="Ellipse_57" data-name="Ellipse 57" cx="1.373" cy="1.373" r="1.373" transform="translate(272.844 397.394)" fill="#fff"/>
  </g>
</svg>
