<svg xmlns="http://www.w3.org/2000/svg" width="19.327" height="19.327" viewBox="0 0 19.327 19.327">
  <g id="Gruppe_17125" data-name="Gruppe 17125" transform="translate(-487.422 -392.822)">
    <circle id="Ellipse_58" data-name="Ellipse 58" cx="1.628" cy="1.628" r="1.628" transform="translate(495.458 405.856)" fill="#fff"/>
    <circle id="Ellipse_59" data-name="Ellipse 59" cx="1.628" cy="1.628" r="1.628" transform="translate(495.458 396.026)" fill="#fff"/>
    <circle id="Ellipse_60" data-name="Ellipse 60" cx="1.628" cy="1.628" r="1.628" transform="translate(500.289 400.858)" fill="#fff"/>
    <circle id="Ellipse_61" data-name="Ellipse 61" cx="1.628" cy="1.628" r="1.628" transform="translate(490.626 400.858)" fill="#fff"/>
    <circle id="Ellipse_62" data-name="Ellipse 62" cx="2.509" cy="2.509" r="2.509" transform="translate(489.745 404.809)" fill="#fff"/>
    <path id="Pfad_15485" data-name="Pfad 15485" d="M492.254,463.257a4.832,4.832,0,1,0,4.832,4.832A4.832,4.832,0,0,0,492.254,463.257Zm0,8.814a3.982,3.982,0,1,1,3.982-3.982A3.982,3.982,0,0,1,492.254,472.071Z" transform="translate(0 -60.771)" fill="#fff"/>
    <circle id="Ellipse_63" data-name="Ellipse 63" cx="2.509" cy="2.509" r="2.509" transform="translate(499.409 404.809)" fill="#fff"/>
    <path id="Pfad_15486" data-name="Pfad 15486" d="M562.689,463.257a4.832,4.832,0,1,0,4.832,4.832A4.832,4.832,0,0,0,562.689,463.257Zm0,8.814a3.982,3.982,0,1,1,3.982-3.982A3.982,3.982,0,0,1,562.689,472.071Z" transform="translate(-60.771 -60.771)" fill="#fff"/>
    <circle id="Ellipse_64" data-name="Ellipse 64" cx="2.509" cy="2.509" r="2.509" transform="translate(499.409 395.145)" fill="#fff"/>
    <path id="Pfad_15487" data-name="Pfad 15487" d="M562.689,392.822a4.832,4.832,0,1,0,4.832,4.832A4.832,4.832,0,0,0,562.689,392.822Zm0,8.814a3.982,3.982,0,1,1,3.982-3.982A3.982,3.982,0,0,1,562.689,401.636Z" transform="translate(-60.771 0)" fill="#fff"/>
    <circle id="Ellipse_65" data-name="Ellipse 65" cx="2.509" cy="2.509" r="2.509" transform="translate(489.745 395.145)" fill="#fff"/>
    <path id="Pfad_15488" data-name="Pfad 15488" d="M492.254,392.822a4.832,4.832,0,1,0,4.832,4.832A4.832,4.832,0,0,0,492.254,392.822Zm0,8.814a3.982,3.982,0,1,1,3.982-3.982A3.982,3.982,0,0,1,492.254,401.636Z" transform="translate(0 0)" fill="#fff"/>
  </g>
</svg>
