<svg xmlns="http://www.w3.org/2000/svg" width="14.261" height="18.775" viewBox="0 0 14.261 18.775">
  <path id="Pfad_15491" data-name="Pfad 15491" d="M1126.248,155.774h-8.66a1.6,1.6,0,0,0-1.6,1.6v.363h.667v-.363a.934.934,0,0,1,.933-.933h8.66a.934.934,0,0,1,.933.933v13.614a.934.934,0,0,1-.933.933h-.8V159.335a1.6,1.6,0,0,0-1.6-1.6h-8.66a1.6,1.6,0,0,0-1.6,1.6V172.95a1.6,1.6,0,0,0,1.6,1.6h8.66a1.6,1.6,0,0,0,1.6-1.6v-.363h.8a1.6,1.6,0,0,0,1.6-1.6V157.373A1.6,1.6,0,0,0,1126.248,155.774Zm-3.234,2.628h.831a.938.938,0,0,1,.933.933v.847a5.907,5.907,0,0,1-1.705-.241C1122.9,159.792,1123,159,1123.014,158.4Z" transform="translate(-1113.586 -155.774)" fill="#fff"/>
</svg>
