<svg xmlns="http://www.w3.org/2000/svg" width="14.581" height="19.089" viewBox="0 0 14.581 19.089">
  <g id="Gruppe_17129" data-name="Gruppe 17129" transform="translate(-683 -392.822)">
    <path id="Pfad_15489" data-name="Pfad 15489" d="M690.178,407.543h-1.626a.339.339,0,0,0,0,.678h1.626a.339.339,0,1,0,0-.678Zm-3.252,0H685.3a.339.339,0,0,0,0,.678h1.626a.339.339,0,0,0,0-.678Zm-3.011.215a.337.337,0,0,0-.187.057,1.635,1.635,0,0,0-.7,1.028h0v.006h0v0h0v.006h0v0h0v0h0v0h0v0h0v0h0v0h0v0h0v0h0v0h0v0h0v0h0v0h0v0h0v0h0v0h0v0h0v0h0v0h0v0h0v0H683v0h0v0h0v0h0v0h0v0h0v0h0v0h0v.025a.339.339,0,1,0,.678,0v-.025a.95.95,0,0,1,.426-.79.339.339,0,0,0-.188-.621Zm-.577,2.723a.339.339,0,0,0-.339.339v1.626a.339.339,0,0,0,.678,0V410.82a.339.339,0,0,0-.339-.339Zm0,3.252a.339.339,0,0,0-.339.339V415.7a.339.339,0,1,0,.678,0v-1.626a.339.339,0,0,0-.339-.339Zm0,3.252a.339.339,0,0,0-.339.339v1.626a.339.339,0,1,0,.678,0v-1.626a.339.339,0,0,0-.339-.339Zm0,3.252a.339.339,0,0,0-.339.339V422.2a.339.339,0,1,0,.678,0v-1.626a.339.339,0,0,0-.339-.339Zm.16,3.053a.339.339,0,0,0-.3.5,1.634,1.634,0,0,0,.1.159h0l0,0h0l0,0h0l0,0h.008l0,0h.019l0,0h0l0,0h0l0,0h0l0,0h0l.006.008h0a1.643,1.643,0,0,0,.459.393h0l.005,0h0l.01.005h0l0,0h0l0,0h0l0,0h.107l.007,0h0l0,0h0l.006,0h0a1.607,1.607,0,0,0,.544.134h.023a.339.339,0,0,0,.022-.677.949.949,0,0,1-.767-.491.338.338,0,0,0-.3-.175Zm4.271.668h-1.626a.339.339,0,0,0,0,.678h1.626a.339.339,0,1,0,0-.678Zm3.252,0H689.4a.339.339,0,0,0,0,.678h1.626a.339.339,0,1,0,0-.678Zm3.046-.17a.339.339,0,0,0-.169.045.94.94,0,0,1-.468.125h-.783a.339.339,0,0,0,0,.678h1.536l0,0h.006l0,0h0l0,0h0l.009,0h0l.014-.008h0l.011-.006a.339.339,0,0,0-.169-.633Zm.651-2.66a.339.339,0,0,0-.339.339v1.543c0,.016,0,.033,0,.049a.339.339,0,0,0,.321.356h.018a.339.339,0,0,0,.338-.321c0-.007,0-.015,0-.022h0c0-.02,0-.041,0-.061h0v-1.543a.339.339,0,0,0-.339-.339Zm0-3.252a.339.339,0,0,0-.339.339v1.626a.339.339,0,0,0,.678,0v-1.626a.339.339,0,0,0-.339-.339Zm0-3.252a.339.339,0,0,0-.339.339v1.626a.339.339,0,1,0,.678,0v-1.626a.339.339,0,0,0-.339-.339Zm0-3.252a.339.339,0,0,0-.339.339v1.626a.339.339,0,0,0,.678,0v-1.626a.339.339,0,0,0-.339-.339Zm-.121-3.086a.339.339,0,0,0-.306.483.93.93,0,0,1,.089.4v.917a.339.339,0,0,0,.678,0v-.917h0v0h0v0h0v-.006h0v-.009h0v-.01h0v-.013h0a1.608,1.608,0,0,0-.069-.357h0l0-.009h0v0h0l0-.007h-.009v0h0q-.027-.077-.062-.151a.339.339,0,0,0-.307-.195Zm-1.166-.744H691.8a.339.339,0,1,0,0,.678h1.626a.955.955,0,0,1,.126.008.348.348,0,0,0,.046,0,.339.339,0,0,0,.045-.675l-.079-.009h-.138Z" transform="translate(0 -12.726)" fill="#fff"/>
    <path id="Pfad_15490" data-name="Pfad 15490" d="M708.805,392.822h-1.626a.339.339,0,1,0,0,.678h1.626a.339.339,0,0,0,0-.678Zm-3.252,0h-1.626a.339.339,0,1,0,0,.678h1.626a.339.339,0,0,0,0-.678Zm-3.011.215a.337.337,0,0,0-.187.056,1.635,1.635,0,0,0-.7,1.027h0v.006h0v0h0v.006h0v0h0v.005h0v0h0v0h0v0h0v0h0v0h0v0h0v0h0v0h0v0h0v0h0v0h0v0h0v0h0v0h0v0h0v0h0v0h0v0h-.009v0h0v.567a.339.339,0,0,0,.677,0v-.567a.95.95,0,0,1,.426-.79.339.339,0,0,0-.188-.621Zm10.151,16.031a.336.336,0,0,0-.169.045.941.941,0,0,1-.468.125h-.783a.339.339,0,0,0,0,.678h1.536l0,0h.01l0,0h0l.008,0h0l.014-.008h0l.011-.006a.339.339,0,0,0-.169-.633Zm.651-2.66a.339.339,0,0,0-.339.339v1.543c0,.016,0,.033,0,.049a.339.339,0,0,0,.321.356h.018a.339.339,0,0,0,.338-.321c0-.007,0-.015,0-.022h0c0-.02,0-.04,0-.061h0v-1.543a.339.339,0,0,0-.339-.339Zm0-3.252a.339.339,0,0,0-.339.339v1.626a.339.339,0,1,0,.678,0V403.5a.339.339,0,0,0-.339-.339Zm0-3.252a.339.339,0,0,0-.339.339v1.626a.339.339,0,1,0,.678,0v-1.626a.339.339,0,0,0-.339-.339Zm0-3.252a.339.339,0,0,0-.339.339v1.626a.339.339,0,1,0,.678,0v-1.626a.339.339,0,0,0-.339-.339Zm-.121-3.086a.339.339,0,0,0-.306.483.932.932,0,0,1,.089.4v.917a.339.339,0,1,0,.678,0v-.917h0v0h0v0h0v-.006h0v-.009h0v-.01h0v-.013h0a1.61,1.61,0,0,0-.069-.358h0l0-.009h0v0h0l0-.007H713.6v0h0a1.6,1.6,0,0,0-.062-.151.339.339,0,0,0-.307-.195Zm-1.166-.745h-1.626a.339.339,0,1,0,0,.678h1.626a.933.933,0,0,1,.126.009.349.349,0,0,0,.046,0,.339.339,0,0,0,.045-.674l-.079-.009h-.138Z" transform="translate(-16.103)" fill="#fff"/>
  </g>
</svg>
